<?xml version="1.0" standalone="no"?>
<!DOCTYPE svg PUBLIC "-//W3C//DTD SVG 20010904//EN"
 "http://www.w3.org/TR/2001/REC-SVG-20010904/DTD/svg10.dtd">
<svg version="1.0" xmlns="http://www.w3.org/2000/svg"
 width="940.000000pt" height="216.000000pt" viewBox="0 0 940.000000 216.000000"
 preserveAspectRatio="xMidYMid meet">

<g transform="translate(0.000000,216.000000) scale(0.100000,-0.100000)"
fill="#000000" stroke="none">
<path d="M1198 2073 c7 -3 16 -2 19 1 4 3 -2 6 -13 5 -11 0 -14 -3 -6 -6z"/>
<path d="M1248 2063 c7 -3 16 -2 19 1 4 3 -2 6 -13 5 -11 0 -14 -3 -6 -6z"/>
<path d="M1338 2043 c7 -3 16 -2 19 1 4 3 -2 6 -13 5 -11 0 -14 -3 -6 -6z"/>
<path d="M1388 2033 c7 -3 16 -2 19 1 4 3 -2 6 -13 5 -11 0 -14 -3 -6 -6z"/>
<path d="M1450 2020 c14 -4 34 -8 45 -8 16 0 15 2 -5 8 -14 4 -34 8 -45 8 -16
0 -15 -2 5 -8z"/>
<path d="M1540 2000 c14 -4 34 -8 45 -8 16 0 15 2 -5 8 -14 4 -34 8 -45 8 -16
0 -15 -2 5 -8z"/>
<path d="M1628 1983 c7 -3 16 -2 19 1 4 3 -2 6 -13 5 -11 0 -14 -3 -6 -6z"/>
<path d="M1661 1977 c3 -4 23 -11 45 -16 l39 -9 -45 -2 c-25 -1 -36 -4 -25 -7
29 -7 36 -16 24 -33 -9 -13 -10 -12 -5 3 4 13 0 17 -19 17 -14 0 -25 5 -25 12
0 6 -3 8 -6 5 -4 -4 -1 -13 6 -22 22 -27 21 -79 -2 -94 -15 -9 -23 -10 -31 -2
-6 6 -20 10 -31 10 -17 -1 -18 -2 -3 -6 9 -2 17 -12 18 -21 0 -11 2 -12 6 -4
2 6 9 9 14 6 6 -3 17 0 26 8 15 12 15 11 3 -7 -9 -15 -24 -21 -56 -22 -28 -1
-44 3 -44 10 0 7 -5 4 -11 -5 -5 -10 -17 -18 -25 -18 -8 0 -13 -3 -11 -7 3 -5
-45 -8 -107 -8 -109 0 -114 -1 -187 -37 -41 -20 -92 -52 -114 -71 l-40 -35
-55 44 c-30 24 -72 50 -92 58 -58 25 -59 18 -1 -10 29 -14 74 -44 100 -68 l48
-43 35 33 c90 86 238 134 359 116 278 -41 427 -309 331 -594 l-23 -68 -199 0
-199 0 -41 65 c-61 98 -110 99 -146 3 -11 -29 -28 -71 -38 -93 l-17 -40 -56
199 c-81 284 -95 287 -178 33 l-55 -167 -237 0 -237 0 -22 58 c-12 31 -20 45
-17 31 2 -14 11 -42 20 -62 14 -34 19 -37 58 -38 23 -1 56 -3 72 -4 17 -1 64
-3 105 -5 l75 -3 -55 -7 -55 -6 35 -9 35 -9 -45 -7 c-25 -4 -73 -8 -107 -8
-35 -1 -63 -5 -63 -9 0 -24 154 -219 182 -230 4 -2 8 -8 8 -13 0 -6 -5 -7 -12
-3 -7 4 -8 3 -4 -4 4 -6 13 -9 20 -6 8 3 17 0 22 -7 4 -8 3 -10 -5 -5 -6 4
-18 2 -26 -4 -8 -6 -18 -9 -23 -6 -6 3 -12 -3 -15 -14 -6 -25 -1 -25 46 0 20
11 38 18 38 15 1 -3 2 -15 3 -27 1 -13 7 -22 14 -21 16 4 35 -34 22 -42 -5 -3
-10 -1 -10 4 0 6 -7 11 -15 11 -17 0 -20 -16 -5 -25 6 -4 7 -12 3 -18 -4 -6
-8 -20 -8 -30 -2 -20 -24 -39 -37 -31 -4 3 -8 0 -8 -6 0 -8 7 -9 17 -5 10 3
20 7 23 8 3 1 5 -2 5 -8 0 -5 -2 -9 -5 -8 -8 2 -4 -52 5 -67 5 -9 4 -11 -3 -6
-7 4 -12 2 -12 -3 0 -6 -7 -11 -15 -11 -8 0 -15 -5 -15 -11 0 -7 -11 -4 -28 7
-17 11 -23 13 -16 3 6 -8 11 -25 12 -38 1 -23 1 -23 -21 -5 l-22 19 19 -22
c10 -13 23 -20 29 -16 5 3 7 1 4 -4 -8 -13 15 -34 40 -37 19 -3 32 -36 14 -36
-6 0 -59 48 -119 108 -92 89 -157 169 -240 289 -7 10 -6 5 2 -12 54 -114 380
-452 415 -431 5 4 13 1 17 -5 4 -8 3 -9 -4 -5 -7 4 -12 5 -12 2 0 -7 114 -84
136 -93 13 -5 15 -3 9 7 -5 9 -4 11 4 6 6 -4 9 -11 6 -16 -3 -5 3 -14 14 -19
26 -14 34 -14 25 1 -4 7 -3 8 5 4 6 -4 9 -12 6 -17 -8 -11 150 -89 181 -89 33
0 170 72 295 156 199 132 335 260 444 414 65 92 88 137 79 152 -4 6 -3 8 4 4
25 -15 122 255 153 429 17 96 21 168 23 365 3 236 3 238 -3 55 l-7 -190 -2
195 c-2 130 -6 190 -12 180 -6 -9 -10 -10 -10 -3 0 6 7 19 16 28 15 14 15 18
0 40 -18 27 -163 78 -228 79 -20 1 -34 4 -32 7 2 4 -13 10 -34 14 -20 3 -48 9
-62 12 -14 3 -22 3 -19 0z m298 -83 c3 -4 -1 -5 -9 -2 -9 3 -41 11 -73 18 -31
6 -57 15 -57 20 0 9 128 -24 139 -36z m-74 -4 c3 -5 1 -10 -4 -10 -6 0 -11 5
-11 10 0 6 2 10 4 10 3 0 8 -4 11 -10z m-319 -145 c20 -8 39 -13 43 -10 4 2 8
-2 8 -9 0 -10 -11 -9 -46 7 -25 11 -48 21 -50 23 -9 8 11 3 45 -11z m119 -77
c19 -22 19 -22 -10 2 -48 40 -51 43 -30 32 11 -6 29 -21 40 -34z m-698 -250
c6 -7 17 -42 26 -78 26 -101 28 -120 8 -61 l-18 55 -18 -47 c-18 -49 -34 -58
-55 -32 -9 11 -9 15 -1 15 7 0 9 5 5 11 -4 8 -10 6 -17 -6 -7 -14 -5 -21 9
-32 10 -7 23 -13 29 -13 7 0 19 -28 29 -62 44 -160 98 -320 111 -324 32 -13
53 17 96 136 24 66 47 120 51 120 4 0 14 -13 23 -29 30 -58 42 -61 248 -61
112 0 187 -4 185 -9 -1 -5 -32 -46 -68 -91 -97 -124 -274 -275 -473 -405 -72
-46 -93 -56 -115 -50 -41 10 -266 164 -366 249 -100 86 -197 188 -245 259
l-32 47 224 0 c267 0 259 -3 307 121 17 45 30 82 28 84 -6 5 -47 25 -51 25 -3
0 -8 -12 -11 -26 -4 -15 -9 -24 -11 -22 -6 6 38 142 48 146 4 2 5 8 2 12 -7
12 21 80 33 80 5 0 14 -6 19 -12z m-67 -265 c-11 -17 -11 -17 -6 0 3 10 6 24
7 30 0 9 2 9 5 0 3 -7 0 -20 -6 -30z m-50 -108 c-7 -8 -17 -15 -23 -15 -6 0
-2 7 9 15 25 19 30 19 14 0z m-155 -396 c11 -17 -4 -9 -36 21 -18 16 -35 27
-39 25 -4 -2 -7 2 -7 10 0 9 13 4 39 -16 21 -17 40 -35 43 -40z m113 -83 c3
-5 -16 6 -42 24 -26 19 -50 39 -54 44 -3 5 16 -6 42 -24 26 -19 50 -39 54 -44z
m-245 -182 c-3 -8 -7 -14 -10 -14 -3 0 -3 7 1 15 3 8 1 15 -4 15 -6 0 -10 5
-10 11 0 8 4 8 14 -1 8 -6 12 -18 9 -26z m24 -9 c0 -8 -4 -12 -9 -9 -5 3 -6
10 -3 15 9 13 12 11 12 -6z m138 -151 c17 -14 21 -21 10 -16 -30 16 -61 41
-50 41 6 0 24 -11 40 -25z"/>
<path d="M956 1292 c-2 -4 -1 -14 4 -22 7 -11 9 -9 7 8 -1 24 -3 26 -11 14z"/>
<path d="M1646 1867 c3 -10 9 -15 12 -12 3 3 0 11 -7 18 -10 9 -11 8 -5 -6z"/>
<path d="M1565 1810 c-3 -5 -1 -10 4 -10 6 0 11 5 11 10 0 6 -2 10 -4 10 -3 0
-8 -4 -11 -10z"/>
<path d="M688 1763 c12 -2 32 -2 45 0 12 2 2 4 -23 4 -25 0 -35 -2 -22 -4z"/>
<path d="M618 1753 c6 -2 18 -2 25 0 6 3 1 5 -13 5 -14 0 -19 -2 -12 -5z"/>
<path d="M771 1756 c2 -2 22 -6 44 -9 28 -5 34 -4 20 3 -19 8 -73 14 -64 6z"/>
<path d="M515 1720 c-3 -6 1 -7 9 -4 18 7 21 14 7 14 -6 0 -13 -4 -16 -10z"/>
<path d="M469 1689 l-24 -20 28 17 c15 9 27 18 27 20 0 8 -8 4 -31 -17z"/>
<path d="M394 1628 l-29 -33 33 29 c30 28 37 36 29 36 -2 0 -16 -15 -33 -32z"/>
<path d="M330 1539 c-7 -11 -10 -23 -7 -25 2 -2 9 7 15 21 14 30 7 33 -8 4z"/>
<path d="M4403 1512 l-63 -3 0 -359 0 -360 68 0 67 0 -3 302 c-1 167 -3 330
-5 363 l-2 60 -62 -3z m-26 -708 c-3 -3 -12 -4 -19 -1 -8 3 -5 6 6 6 11 1 17
-2 13 -5z"/>
<path d="M5043 1512 l-63 -3 0 -359 0 -360 70 0 70 0 0 170 c0 184 6 212 51
236 45 23 87 18 120 -15 l29 -29 0 -181 0 -181 65 0 65 0 0 200 c0 182 -2 204
-20 241 -29 57 -71 79 -148 79 -66 0 -138 -27 -149 -55 -3 -8 -9 -15 -15 -15
-5 0 -8 56 -7 136 0 74 0 136 -2 137 -2 1 -32 1 -66 -1z"/>
<path d="M5780 1155 l0 -365 70 0 71 0 -3 250 c-3 229 1 288 15 228 3 -13 14
-48 26 -78 11 -30 49 -131 85 -225 l64 -170 57 0 57 0 23 60 c13 33 55 143 94
245 l71 185 0 -247 0 -248 70 0 70 0 0 365 0 365 -85 0 c-77 0 -86 -2 -99 -23
-12 -17 -128 -312 -192 -487 -3 -8 -48 98 -100 235 -52 138 -99 254 -104 259
-5 5 -50 11 -100 12 l-90 3 0 -364z"/>
<path d="M7852 1503 c-35 -30 -38 -68 -8 -97 50 -51 136 -23 136 44 0 61 -80
94 -128 53z"/>
<path d="M2482 1153 l-2 -363 70 0 70 0 0 155 0 155 160 0 160 0 0 -155 0
-155 70 0 70 0 0 360 0 360 -70 0 -70 0 0 -150 0 -150 -160 0 -160 0 0 150 0
150 -60 0 -60 0 -2 -72 -2 -73 -6 75 c-4 41 -7 -88 -8 -287z m81 340 c-7 -2
-19 -2 -25 0 -7 3 -2 5 12 5 14 0 19 -2 13 -5z m394 -15 c-3 -8 -6 -5 -6 6 -1
11 2 17 5 13 3 -3 4 -12 1 -19z m0 -70 c-3 -7 -5 -2 -5 12 0 14 2 19 5 13 2
-7 2 -19 0 -25z m0 -80 c-3 -8 -6 -5 -6 6 -1 11 2 17 5 13 3 -3 4 -12 1 -19z
m-460 -120 c-3 -8 -6 -5 -6 6 -1 11 2 17 5 13 3 -3 4 -12 1 -19z m0 -65 c-3
-10 -5 -2 -5 17 0 19 2 27 5 18 2 -10 2 -26 0 -35z m0 -245 c-3 -8 -6 -5 -6 6
-1 11 2 17 5 13 3 -3 4 -12 1 -19z m26 -95 c-7 -2 -19 -2 -25 0 -7 3 -2 5 12
5 14 0 19 -2 13 -5z"/>
<path d="M296 1448 c-3 -13 -5 -34 -5 -48 1 -15 5 -7 10 19 9 47 6 68 -5 29z"/>
<path d="M4690 1426 l-55 -11 -3 -58 -3 -57 -34 0 -35 0 0 -50 0 -50 35 0 35
0 0 -142 c1 -165 9 -211 44 -247 22 -21 37 -26 96 -29 38 -2 81 -1 95 2 22 6
25 12 25 51 l0 45 -43 0 c-73 0 -81 17 -85 181 l-4 139 66 0 66 0 0 50 0 50
-65 0 -65 0 0 70 c0 39 -3 69 -7 69 -5 -1 -33 -6 -63 -13z"/>
<path d="M8188 1428 l-58 -10 0 -59 0 -59 -40 0 -40 0 0 -50 0 -50 40 0 40 0
0 -155 c0 -177 9 -212 62 -245 27 -17 47 -20 113 -18 l80 3 3 51 3 52 -43 -5
c-35 -4 -47 -1 -63 17 -18 19 -20 39 -23 161 l-4 139 66 0 66 0 0 50 0 49 -62
3 -63 3 1 68 c0 42 -3 67 -10 66 -6 -1 -37 -6 -68 -11z"/>
<path d="M7520 1313 c-54 -9 -90 -26 -114 -54 -14 -16 -27 -29 -30 -29 -3 0
-6 16 -6 35 l0 35 -65 0 -65 0 0 -255 0 -255 70 0 70 0 0 155 c0 177 9 213 62
245 59 36 110 22 134 -35 10 -25 14 -80 14 -200 l0 -165 70 0 70 0 0 178 c0
200 -11 261 -57 304 -33 32 -100 49 -153 41z"/>
<path d="M9260 1307 c-20 -7 -43 -25 -55 -44 -26 -42 -35 -41 -35 2 l0 35 -65
0 -65 0 0 -255 0 -255 70 0 70 0 0 155 c0 173 8 203 60 230 16 8 47 15 70 15
l40 0 -6 58 c-9 75 -19 81 -84 59z"/>
<path d="M292 1285 c0 -16 2 -22 5 -12 2 9 2 23 0 30 -3 6 -5 -1 -5 -18z"/>
<path d="M3322 1284 c-59 -29 -94 -70 -117 -133 -21 -61 -19 -159 5 -224 21
-57 71 -114 89 -102 7 3 10 1 9 -6 -5 -21 60 -38 143 -38 98 -1 171 33 206 95
13 21 23 42 23 45 0 4 -25 10 -55 14 -53 6 -56 5 -80 -24 -65 -77 -201 -35
-221 69 l-6 30 186 0 186 0 0 50 c0 80 -42 183 -73 177 -6 -1 -11 5 -12 13 0
8 -20 25 -45 38 -65 33 -168 31 -238 -4z m202 -93 c13 -12 28 -37 33 -56 l11
-35 -125 0 c-124 0 -124 0 -118 23 10 33 39 70 66 85 34 18 105 9 133 -17z"/>
<path d="M3874 1289 c-50 -24 -68 -43 -89 -92 -17 -42 -18 -42 57 -52 41 -5
47 -4 53 15 9 27 62 60 98 60 64 0 104 -42 95 -101 -3 -22 -10 -25 -98 -35
-120 -14 -159 -27 -195 -64 -39 -41 -47 -128 -15 -178 50 -81 214 -86 298 -9
l22 20 0 -31 0 -32 60 0 60 0 0 185 c0 202 -7 234 -57 288 -34 35 -79 47 -173
47 -56 0 -86 -5 -116 -21z m216 -318 c0 -55 -52 -101 -113 -101 -54 0 -87 22
-87 58 0 15 4 33 9 40 13 21 81 41 139 42 l52 0 0 -39z"/>
<path d="M6758 1285 c-26 -14 -59 -40 -73 -59 -74 -98 -72 -275 5 -368 47 -57
101 -78 201 -78 97 0 146 18 196 71 117 123 83 368 -60 434 -74 35 -201 35
-269 0z m212 -103 c62 -63 66 -199 6 -268 -17 -20 -34 -28 -73 -31 -45 -5 -54
-2 -82 23 -48 44 -67 157 -37 228 33 78 130 103 186 48z"/>
<path d="M8575 1290 c-93 -46 -141 -141 -133 -269 9 -156 96 -242 248 -245 86
-2 148 21 200 73 54 55 70 101 70 202 0 117 -52 206 -142 243 -55 23 -192 21
-243 -4z m193 -101 c34 -22 52 -70 52 -143 0 -82 -19 -130 -59 -150 -97 -51
-181 19 -181 148 0 142 86 208 188 145z"/>
<path d="M7830 1045 l0 -255 70 0 70 0 0 255 0 255 -70 0 -70 0 0 -255z"/>
<path d="M301 1224 c0 -11 3 -14 6 -6 3 7 2 16 -1 19 -3 4 -6 -2 -5 -13z"/>
<path d="M201 790 c14 -31 19 -36 19 -24 0 6 -7 19 -16 30 -14 18 -14 18 -3
-6z"/>
<path d="M435 690 c-3 -6 1 -7 9 -4 18 7 21 14 7 14 -6 0 -13 -4 -16 -10z"/>
<path d="M450 670 c-64 -34 -86 -38 -50 -10 20 16 21 19 5 13 -11 -4 -29 -16
-40 -26 -11 -11 -14 -16 -6 -12 7 4 16 3 20 -3 4 -7 32 3 76 28 81 46 77 53
-5 10z"/>
<path d="M589 510 c-1 -5 -2 -16 -3 -22 -1 -7 -8 -12 -15 -10 -7 1 -10 -2 -6
-8 5 -8 11 -8 19 -1 7 6 15 9 17 6 3 -2 5 7 5 20 0 24 -15 36 -17 15z"/>
</g>
</svg>
